solid OpenSCAD_Model
  facet normal -0 0.231621 0.972806
    outer loop
      vertex 4 2.25 3.8
      vertex 13.75 0.15 4.3
      vertex 11.5 2.25 3.8
    endloop
  endfacet
  facet normal 0 0.231621 0.972806
    outer loop
      vertex 13.75 0.15 4.3
      vertex 4 2.25 3.8
      vertex 1.75 0.15 4.3
    endloop
  endfacet
  facet normal -0.682318 0.731055 0
    outer loop
      vertex 1.75 0.15 0.4
      vertex 4 2.25 3.8
      vertex 4 2.25 0.4
    endloop
  endfacet
  facet normal -0.682318 0.731055 0
    outer loop
      vertex 4 2.25 3.8
      vertex 1.75 0.15 0.4
      vertex 1.75 0.15 4.3
    endloop
  endfacet
  facet normal 0 -1 0
    outer loop
      vertex 1.75 0.15 0.4
      vertex 13.75 0.15 4.3
      vertex 1.75 0.15 4.3
    endloop
  endfacet
  facet normal 0 -1 -0
    outer loop
      vertex 13.75 0.15 4.3
      vertex 1.75 0.15 0.4
      vertex 13.75 0.15 0.4
    endloop
  endfacet
  facet normal 0.682318 0.731055 -0
    outer loop
      vertex 13.75 0.15 0.4
      vertex 11.5 2.25 3.8
      vertex 13.75 0.15 4.3
    endloop
  endfacet
  facet normal 0.682318 0.731055 0
    outer loop
      vertex 11.5 2.25 3.8
      vertex 13.75 0.15 0.4
      vertex 11.5 2.25 0.4
    endloop
  endfacet
  facet normal 0 1 -0
    outer loop
      vertex 11.5 2.25 0.4
      vertex 4 2.25 3.8
      vertex 11.5 2.25 3.8
    endloop
  endfacet
  facet normal 0 1 0
    outer loop
      vertex 4 2.25 3.8
      vertex 11.5 2.25 0.4
      vertex 4 2.25 0.4
    endloop
  endfacet
  facet normal -1 0 0
    outer loop
      vertex 0 0 0
      vertex 0 2.5 0.4
      vertex 0 2.5 0
    endloop
  endfacet
  facet normal -1 -0 0
    outer loop
      vertex 0 2.5 0.4
      vertex 0 0 0
      vertex 0 0 0.4
    endloop
  endfacet
  facet normal 0 0 1
    outer loop
      vertex 15.5 2.5 0.4
      vertex 13.75 0.15 0.4
      vertex 15.5 0 0.4
    endloop
  endfacet
  facet normal 0 0 1
    outer loop
      vertex 15.5 2.5 0.4
      vertex 11.5 2.25 0.4
      vertex 13.75 0.15 0.4
    endloop
  endfacet
  facet normal 0 0 1
    outer loop
      vertex 15.5 2.5 0.4
      vertex 4 2.25 0.4
      vertex 11.5 2.25 0.4
    endloop
  endfacet
  facet normal 0 0 1
    outer loop
      vertex 4 2.25 0.4
      vertex 0 2.5 0.4
      vertex 1.75 0.15 0.4
    endloop
  endfacet
  facet normal -0 0 1
    outer loop
      vertex 0 2.5 0.4
      vertex 4 2.25 0.4
      vertex 15.5 2.5 0.4
    endloop
  endfacet
  facet normal -0 0 1
    outer loop
      vertex 1.75 0.15 0.4
      vertex 15.5 0 0.4
      vertex 13.75 0.15 0.4
    endloop
  endfacet
  facet normal 0 0 1
    outer loop
      vertex 1.75 0.15 0.4
      vertex 0 0 0.4
      vertex 15.5 0 0.4
    endloop
  endfacet
  facet normal 0 0 1
    outer loop
      vertex 0 0 0.4
      vertex 1.75 0.15 0.4
      vertex 0 2.5 0.4
    endloop
  endfacet
  facet normal 1 -0 0
    outer loop
      vertex 15.5 0 0.4
      vertex 15.5 2.5 0
      vertex 15.5 2.5 0.4
    endloop
  endfacet
  facet normal 1 0 0
    outer loop
      vertex 15.5 2.5 0
      vertex 15.5 0 0.4
      vertex 15.5 0 0
    endloop
  endfacet
  facet normal 0 1 -0
    outer loop
      vertex 15.5 2.5 0
      vertex 0 2.5 0.4
      vertex 15.5 2.5 0.4
    endloop
  endfacet
  facet normal 0 1 0
    outer loop
      vertex 0 2.5 0.4
      vertex 15.5 2.5 0
      vertex 0 2.5 0
    endloop
  endfacet
  facet normal 0 0 -1
    outer loop
      vertex 0 0 0
      vertex 15.5 2.5 0
      vertex 15.5 0 0
    endloop
  endfacet
  facet normal -0 0 -1
    outer loop
      vertex 15.5 2.5 0
      vertex 0 0 0
      vertex 0 2.5 0
    endloop
  endfacet
  facet normal 0 -1 0
    outer loop
      vertex 0 0 0
      vertex 15.5 0 0.4
      vertex 0 0 0.4
    endloop
  endfacet
  facet normal 0 -1 -0
    outer loop
      vertex 15.5 0 0.4
      vertex 0 0 0
      vertex 15.5 0 0
    endloop
  endfacet
endsolid OpenSCAD_Model
